<svg width="14" height="14" viewBox="0 0 14 14" fill="none" xmlns="http://www.w3.org/2000/svg">
<path d="M6.33325 4.99992H7.66659C7.8434 4.99992 8.01297 5.07016 8.13799 5.19518C8.26302 5.32021 8.33325 5.48977 8.33325 5.66659C8.33325 5.8434 8.40349 6.01297 8.52852 6.13799C8.65354 6.26301 8.82311 6.33325 8.99992 6.33325C9.17673 6.33325 9.3463 6.26301 9.47133 6.13799C9.59635 6.01297 9.66659 5.8434 9.66659 5.66659C9.66659 5.13615 9.45587 4.62744 9.0808 4.25237C8.70573 3.8773 8.19702 3.66659 7.66659 3.66659H6.33325C5.80282 3.66659 5.29411 3.8773 4.91904 4.25237C4.54397 4.62744 4.33325 5.13615 4.33325 5.66659V8.33325C4.33325 8.86369 4.54397 9.37239 4.91904 9.74747C5.29411 10.1225 5.80282 10.3333 6.33325 10.3333H7.66659C8.19702 10.3333 8.70573 10.1225 9.0808 9.74747C9.45587 9.37239 9.66659 8.86369 9.66659 8.33325C9.66659 8.15644 9.59635 7.98687 9.47133 7.86185C9.3463 7.73682 9.17673 7.66659 8.99992 7.66659C8.82311 7.66659 8.65354 7.73682 8.52852 7.86185C8.40349 7.98687 8.33325 8.15644 8.33325 8.33325C8.33325 8.51006 8.26302 8.67963 8.13799 8.80466C8.01297 8.92968 7.8434 8.99992 7.66659 8.99992H6.33325C6.15644 8.99992 5.98687 8.92968 5.86185 8.80466C5.73683 8.67963 5.66659 8.51006 5.66659 8.33325V5.66659C5.66659 5.48977 5.73683 5.32021 5.86185 5.19518C5.98687 5.07016 6.15644 4.99992 6.33325 4.99992ZM6.99992 0.333252C5.68138 0.333252 4.39245 0.724245 3.29612 1.45679C2.19979 2.18933 1.34531 3.23052 0.840725 4.4487C0.336141 5.66687 0.204118 7.00731 0.461353 8.30052C0.718588 9.59373 1.35353 10.7816 2.28588 11.714C3.21823 12.6463 4.40611 13.2813 5.69932 13.5385C6.99253 13.7957 8.33297 13.6637 9.55114 13.1591C10.7693 12.6545 11.8105 11.8 12.5431 10.7037C13.2756 9.60739 13.6666 8.31846 13.6666 6.99992C13.6666 6.12444 13.4941 5.25753 13.1591 4.4487C12.8241 3.63986 12.333 2.90493 11.714 2.28587C11.0949 1.66682 10.36 1.17575 9.55114 0.840722C8.74231 0.50569 7.8754 0.333252 6.99992 0.333252ZM6.99992 12.3333C5.94509 12.3333 4.91394 12.0205 4.03688 11.4344C3.15982 10.8484 2.47623 10.0154 2.07256 9.0409C1.6689 8.06636 1.56328 6.994 1.76907 5.95944C1.97485 4.92487 2.48281 3.97456 3.22869 3.22868C3.97457 2.4828 4.92487 1.97485 5.95944 1.76906C6.99401 1.56328 8.06636 1.66889 9.0409 2.07256C10.0154 2.47623 10.8484 3.15982 11.4344 4.03688C12.0205 4.91394 12.3333 5.94509 12.3333 6.99992C12.3333 8.41441 11.7714 9.77096 10.7712 10.7712C9.77096 11.7713 8.41441 12.3333 6.99992 12.3333Z" fill="#1E0D03"/>
</svg>
